<svg width="363" height="511" viewBox="0 0 363 511" fill="none" xmlns="http://www.w3.org/2000/svg">
  <path fill-rule="evenodd" clip-rule="evenodd" d="M286.818 66.824V0.859985H307.89V47.816H330.938V66.824H286.818Z" fill="black"/>
  <path d="M205.504 0.823975H222.877L240.053 26.1553L257.131 0.823975H274.504V66.824H253.478V43.0758L240.053 62.8659L226.53 43.0758V66.824H205.504V0.823975Z" fill="black"/>
  <path fill-rule="evenodd" clip-rule="evenodd" d="M197.228 66.824H172.678C170.096 61.6604 167.499 56.5052 164.891 51.3556C162.49 56.4851 160.196 61.6612 157.868 66.824H133.425L152.489 33.4853L134.07 0.859985H158.49C160.77 5.61413 163.054 10.3664 165.336 15.12C167.419 10.3212 169.708 5.60663 171.907 0.859985H196.355L177.707 33.1502L197.228 66.824Z" fill="black"/>
  <path fill-rule="evenodd" clip-rule="evenodd" d="M81 62.0883L85.6321 43.4103L90.1466 45.7804C93.1267 47.345 97.9962 48.934 102.821 48.934C105.355 48.934 106.735 48.3981 107.368 47.9499C107.838 47.6165 108.023 47.2737 108.023 46.656C108.023 46.1514 107.956 45.8379 107.252 45.265C106.276 44.4712 104.426 43.5373 100.998 42.3525L100.979 42.3458L100.96 42.339C90.8837 38.7403 82.3092 32.4495 82.3092 21.372C82.3092 15.2179 84.9402 9.74481 89.6405 5.88573C94.2894 2.06887 100.733 0 108.239 0C115.404 0 120.727 1.40118 124.747 3.31089L127.788 4.75519L122.658 23.1635L118.318 20.9937C116.472 20.0704 112.874 18.664 108.067 18.664C105.814 18.664 104.621 19.1965 104.101 19.5802C103.648 19.9143 103.639 20.1533 103.639 20.254C103.639 20.5558 103.692 20.6455 103.712 20.6801L103.714 20.6833C103.756 20.7563 103.92 20.9978 104.478 21.3903C105.728 22.2697 107.914 23.2237 111.785 24.6754C117.23 26.6897 121.656 29.2701 124.726 32.7955C127.889 36.429 129.353 40.7681 129.353 45.71C129.353 51.6352 127.068 57.2789 122.265 61.3825C117.511 65.4441 110.667 67.684 102.047 67.684C94.8671 67.684 87.6426 65.7593 83.6865 63.573L81 62.0883Z" fill="black"/>
  <path fill-rule="evenodd" clip-rule="evenodd" d="M49.5313 0.859985H70.6033V41.496C70.6033 50.3212 68.4912 57.1272 63.8738 61.6749C59.2643 66.2148 52.9006 67.77 46.0493 67.77C42.6535 67.77 38.2477 67.2205 35.1524 66.1887L32 65.1379L34.5762 46.4986L39.1442 48.0213C40.5405 48.4867 42.4352 48.848 44.5873 48.848C46.801 48.848 47.6702 48.3468 48.1336 47.8255C48.7133 47.1734 49.5313 45.5184 49.5313 41.41V0.859985Z" fill="black"/>
  <path d="M33.011 469.877L0 99.62H362.734L329.688 469.819L181.145 511L33.011 469.877Z" fill="#25A61A"/>
  <path d="M181.367 479.523L301.397 446.246L329.637 130.894L181.367 129.894V479.523Z" fill="#34BB28"/>
  <path d="M181.247 258.443L116.603 201.237L80.7998 242L152.405 299.474L80.7998 370L116.603 405.237L181.247 334.443V258.443Z" fill="url(#paint0_linear_42_16)"/>
  <path d="M245.844 201.094L181.2 258.3V334.3L245.844 405.094L282.144 371.41L210.041 299.331L282.144 241.91L245.844 201.094Z" fill="url(#paint1_linear_42_16)"/>
  <defs>
    <linearGradient id="paint0_linear_42_16" x1="80.3025" y1="307.052" x2="181.744" y2="307.052" gradientUnits="userSpaceOnUse">
      <stop stop-color="#EAEAEA"/>
      <stop offset="1" stop-color="#D9D9D9"/>
    </linearGradient>
    <linearGradient id="paint1_linear_42_16" x1="181.697" y1="296.352" x2="283.139" y2="296.352" gradientUnits="userSpaceOnUse">
      <stop stop-color="#F1F1F1"/>
      <stop offset="1" stop-color="#F9F9F9"/>
    </linearGradient>
  </defs>
</svg>
